<svg version="1.1" xmlns="http://www.w3.org/2000/svg" viewBox="0 0 585 251.5" width="585" height="251.5" filter="invert(93%) hue-rotate(180deg)">
  <!-- svg-source:excalidraw -->
  
  <defs>
    <style class="style-fonts">
      @font-face {
        font-family: "Virgil";
        src: url("https://excalidraw.com/Virgil.woff2");
      }
      @font-face {
        font-family: "Cascadia";
        src: url("https://excalidraw.com/Cascadia.woff2");
      }
      @font-face {
        font-family: "Assistant";
        src: url("https://excalidraw.com/Assistant-Regular.woff2");
      }
    </style>
    
  </defs>
  <g stroke-linecap="round" transform="translate(10 98.5) rotate(0 76 71.5)"><path d="M96.25 18 C107.86 27.65, 118.96 38.99, 132.75 54 M96.25 18 C106.22 29.03, 118.72 39.72, 132.75 54 M132.75 54 C151.55 71.66, 154 73.04, 132.75 90 M132.75 54 C153.03 71.32, 150.57 72.91, 132.75 90 M132.75 90 C122.13 102.29, 111.79 112.65, 96.25 125 M132.75 90 C123.1 98.69, 112.45 109.6, 96.25 125 M96.25 125 C78 142.23, 78.94 144.99, 57.75 125 M96.25 125 C75.6 142.24, 75.77 143.72, 57.75 125 M57.75 125 C47.85 118.24, 39.13 109.6, 19.25 90 M57.75 125 C45.35 113.06, 34.48 102.03, 19.25 90 M19.25 90 C-0.45 72.4, 0 72.16, 19.25 54 M19.25 90 C0.22 73.3, 0.14 71.18, 19.25 54 M19.25 54 C34.33 38.85, 47.86 27.13, 57.75 18 M19.25 54 C28.97 44.29, 38.84 33.66, 57.75 18 M57.75 18 C77.05 1.74, 75.08 1.54, 96.25 18 M57.75 18 C75.44 0.73, 77 -1.22, 96.25 18" stroke="#e03131" stroke-width="2" fill="none"></path></g><g stroke-linecap="round" transform="translate(134 10) rotate(0 76 71.5)"><path d="M96.25 18 C107.93 28.31, 118.64 43.26, 132.75 54 M96.25 18 C111.28 31.92, 125.71 46.81, 132.75 54 M132.75 54 C151.72 72.04, 152.23 72.56, 132.75 90 M132.75 54 C153.66 73.88, 153.72 73.94, 132.75 90 M132.75 90 C126.18 95.31, 118.97 105.8, 96.25 125 M132.75 90 C123.1 99.29, 114.14 106.68, 96.25 125 M96.25 125 C76.3 143.63, 76.89 141.25, 57.75 125 M96.25 125 C76.99 143.3, 75.47 144.65, 57.75 125 M57.75 125 C45.12 113.91, 33.21 101.57, 19.25 90 M57.75 125 C47.54 116.48, 38.78 107.24, 19.25 90 M19.25 90 C0.31 71.72, -0.83 70.84, 19.25 54 M19.25 90 C-0.88 70.14, -0.19 71.04, 19.25 54 M19.25 54 C35.26 40.51, 49.4 26.64, 57.75 18 M19.25 54 C33.22 39.61, 47.48 25.44, 57.75 18 M57.75 18 C77.68 -0.97, 77.04 1.03, 96.25 18 M57.75 18 C76.59 0.3, 77.43 -0.87, 96.25 18" stroke="#f08c00" stroke-width="2" fill="none"></path></g><g stroke-linecap="round" transform="translate(304 13) rotate(0 76 71.5)"><path d="M96.25 18 C109.82 31.67, 120.7 43.47, 132.75 54 M96.25 18 C107.88 28.54, 117.57 40.64, 132.75 54 M132.75 54 C151.89 73.01, 150.04 70.9, 132.75 90 M132.75 54 C150.69 70.27, 149.94 70.03, 132.75 90 M132.75 90 C122.16 99.42, 109.07 114.03, 96.25 125 M132.75 90 C125.04 98.13, 117.43 103.88, 96.25 125 M96.25 125 C75.97 142.29, 77.15 141.73, 57.75 125 M96.25 125 C76.19 142.81, 78.75 140.84, 57.75 125 M57.75 125 C44.27 115.01, 34.93 101.51, 19.25 90 M57.75 125 C47.7 115.24, 37.36 105.9, 19.25 90 M19.25 90 C-1.55 72.34, 1.43 70.7, 19.25 54 M19.25 90 C-2.29 72.5, -0.18 74.03, 19.25 54 M19.25 54 C34.17 39.32, 45.78 27.14, 57.75 18 M19.25 54 C32.44 40.34, 46.98 28.5, 57.75 18 M57.75 18 C76.7 0.31, 78.11 -0.88, 96.25 18 M57.75 18 C77.58 -0.78, 76.36 -0.51, 96.25 18" stroke="#2f9e44" stroke-width="2" fill="none"></path></g><g stroke-linecap="round" transform="translate(423 95) rotate(0 76 71.5)"><path d="M96.25 18 C108.06 31.29, 117.91 39.78, 132.75 54 M96.25 18 C107.47 29.63, 121.1 41.66, 132.75 54 M132.75 54 C152.98 73.08, 151.66 73.13, 132.75 90 M132.75 54 C150.91 73.78, 154.02 73.99, 132.75 90 M132.75 90 C118.59 100.97, 106.18 113.53, 96.25 125 M132.75 90 C123.25 99.28, 111.27 109.79, 96.25 125 M96.25 125 C75.52 144.06, 78.25 141.76, 57.75 125 M96.25 125 C75 142.39, 78.45 143.82, 57.75 125 M57.75 125 C43.46 109.8, 30.69 98.16, 19.25 90 M57.75 125 C43.15 112.8, 31.55 101.51, 19.25 90 M19.25 90 C1.84 70.77, 1.27 73.84, 19.25 54 M19.25 90 C1.15 72.6, -0.56 71.74, 19.25 54 M19.25 54 C34.94 41.31, 48.09 26.32, 57.75 18 M19.25 54 C28.66 45.46, 38.27 35.94, 57.75 18 M57.75 18 C78.08 -0.59, 78.58 -0.7, 96.25 18 M57.75 18 C78.63 2.07, 78.77 -1.6, 96.25 18" stroke="#1971c2" stroke-width="2" fill="none"></path></g><g stroke-linecap="round"><g transform="translate(123.70881142612359 125.34447390747147) rotate(0 13.645594286938206 -11.42223695373572)"><path d="M-0.81 1.03 C4.02 -2.73, 23.68 -19.17, 28.36 -22.98 M0.96 0.53 C5.79 -3.01, 23.71 -17.48, 27.97 -21.51" stroke="#1e1e1e" stroke-width="2" fill="none"></path></g><g transform="translate(123.70881142612359 125.34447390747147) rotate(0 13.645594286938206 -11.42223695373572)"><path d="M19.29 -5.98 C22.98 -8.12, 23.37 -13.5, 27.97 -21.51 M19.29 -5.98 C22.62 -11.27, 26.73 -17.37, 27.97 -21.51" stroke="#1e1e1e" stroke-width="2" fill="none"></path></g><g transform="translate(123.70881142612359 125.34447390747147) rotate(0 13.645594286938206 -11.42223695373572)"><path d="M11.33 -15.19 C16.94 -15.04, 19.26 -18.17, 27.97 -21.51 M11.33 -15.19 C17.66 -16.98, 24.83 -19.52, 27.97 -21.51" stroke="#1e1e1e" stroke-width="2" fill="none"></path></g></g><mask></mask><g stroke-linecap="round"><g transform="translate(246.24816321936862 38.24407067757687) rotate(0 47.983064486026706 1.9327760473417044)"><path d="M-0.98 -1.11 C15.03 -0.27, 78.86 3.38, 95.18 4.25 M0.7 0.92 C17.18 1.46, 81.49 1.55, 97.49 2.34" stroke="#1e1e1e" stroke-width="2" fill="none"></path></g><g transform="translate(246.24816321936862 38.24407067757687) rotate(0 47.983064486026706 1.9327760473417044)"><path d="M73.81 10.36 C77.28 7.47, 85.05 8.63, 97.49 2.34 M73.81 10.36 C81.04 8.38, 88.4 5.46, 97.49 2.34" stroke="#1e1e1e" stroke-width="2" fill="none"></path></g><g transform="translate(246.24816321936862 38.24407067757687) rotate(0 47.983064486026706 1.9327760473417044)"><path d="M74.19 -6.73 C77.45 -5.83, 85.14 -0.87, 97.49 2.34 M74.19 -6.73 C81.26 -3.19, 88.5 -0.58, 97.49 2.34" stroke="#1e1e1e" stroke-width="2" fill="none"></path></g></g><mask></mask><g stroke-linecap="round"><g transform="translate(435.122268614723 110.02970781641196) rotate(0 10.908729058043264 9.730603583551428)"><path d="M0.86 -0.43 C4.39 2.82, 17.97 15.72, 21.66 18.97 M-0.15 -1.7 C3.17 1.75, 16.79 16.59, 20.63 20.25" stroke="#1e1e1e" stroke-width="2" fill="none"></path></g><g transform="translate(435.122268614723 110.02970781641196) rotate(0 10.908729058043264 9.730603583551428)"><path d="M7.46 13.9 C11.38 15.77, 15.78 19.55, 20.63 20.25 M7.46 13.9 C10.99 15.61, 14.72 17.04, 20.63 20.25" stroke="#1e1e1e" stroke-width="2" fill="none"></path></g><g transform="translate(435.122268614723 110.02970781641196) rotate(0 10.908729058043264 9.730603583551428)"><path d="M14.62 6.92 C16.08 11.21, 18.05 17.36, 20.63 20.25 M14.62 6.92 C16.23 10.46, 18.02 13.78, 20.63 20.25" stroke="#1e1e1e" stroke-width="2" fill="none"></path></g></g><mask></mask><g transform="translate(45 145.5) rotate(0 45.84996032714844 23.464686572973164)"><text x="0" y="0" font-family="Virgil, Segoe UI Emoji" font-size="18.77174925837852px" fill="#1e1e1e" text-anchor="start" style="white-space: pre;" direction="ltr" dominant-baseline="text-before-edge">Inicio del </text><text x="0" y="23.46468657297315" font-family="Virgil, Segoe UI Emoji" font-size="18.77174925837852px" fill="#1e1e1e" text-anchor="start" style="white-space: pre;" direction="ltr" dominant-baseline="text-before-edge">Proyecto</text></g><g transform="translate(171.78998565673828 48.5) rotate(0 42.67275756835937 28.932015979946982)"><text x="42.67275756835938" y="0" font-family="Virgil, Segoe UI Emoji" font-size="15.430408522638402px" fill="#1e1e1e" text-anchor="middle" style="white-space: pre;" direction="ltr" dominant-baseline="text-before-edge">Desarrollo </text><text x="42.67275756835938" y="19.288010653298002" font-family="Virgil, Segoe UI Emoji" font-size="15.430408522638402px" fill="#1e1e1e" text-anchor="middle" style="white-space: pre;" direction="ltr" dominant-baseline="text-before-edge">del </text><text x="42.67275756835938" y="38.576021306596004" font-family="Virgil, Segoe UI Emoji" font-size="15.430408522638402px" fill="#1e1e1e" text-anchor="middle" style="white-space: pre;" direction="ltr" dominant-baseline="text-before-edge">Proyecto</text></g><g transform="translate(331.8173823038737 48.233456085936325) rotate(0 49.68528849283854 31.633271957031837)"><text x="49.68528849283853" y="0" font-family="Virgil, Segoe UI Emoji" font-size="16.871078377083652px" fill="#1e1e1e" text-anchor="middle" style="white-space: pre;" direction="ltr" dominant-baseline="text-before-edge">Entrega </text><text x="49.68528849283853" y="21.088847971354564" font-family="Virgil, Segoe UI Emoji" font-size="16.871078377083652px" fill="#1e1e1e" text-anchor="middle" style="white-space: pre;" direction="ltr" dominant-baseline="text-before-edge">y</text><text x="49.68528849283853" y="42.17769594270913" font-family="Virgil, Segoe UI Emoji" font-size="16.871078377083652px" fill="#1e1e1e" text-anchor="middle" style="white-space: pre;" direction="ltr" dominant-baseline="text-before-edge"> Finalización</text></g><g transform="translate(443.17005920410156 144.89719554994457) rotate(0 58.32994079589844 20.301402225027715)"><text x="58.32994079589844" y="0" font-family="Virgil, Segoe UI Emoji" font-size="16.241121780022162px" fill="#1e1e1e" text-anchor="middle" style="white-space: pre;" direction="ltr" dominant-baseline="text-before-edge">Mantenimiento </text><text x="58.32994079589844" y="20.3014022250277" font-family="Virgil, Segoe UI Emoji" font-size="16.241121780022162px" fill="#1e1e1e" text-anchor="middle" style="white-space: pre;" direction="ltr" dominant-baseline="text-before-edge">Continuo</text></g></svg>